{"scene":0,"asset":{"generator":"ImageToStl.com","version":"2.0"},"scenes":[{"name":"Scene","nodes":[0]}],"nodes":[{"name":"Node0","children":[1]},{"name":"Node1","mesh":0}],"materials":[{"name":"x1","pbrMetallicRoughness":{"baseColorFactor":[0.85,0.85,0.85,1.0],"metallicFactor":0.05,"roughnessFactor":0.5},"doubleSided":true}],"meshes":[{"name":"Mesh0","primitives":[{"indices":1,"material":0,"attributes":{"POSITION":0}}]}],"accessors":[{"bufferView":0,"componentType":5126,"count":2503,"type":"VEC3","min":[-0.09438042,0.0333099,-0.06167917],"max":[0.0607788,0.18699601,0.05871464]},{"bufferView":1,"componentType":5123,"count":14904,"type":"SCALAR"}],"bufferViews":[{"target":34962,"buffer":0,"byteLength":30036,"byteOffset":0},{"target":34963,"buffer":0,"byteLength":29808,"byteOffset":30036}],"buffers":[{"byteLength":59844,"uri":"data:application/octet-stream;base64,"}]}